<svg id="Layer_1" data-name="Layer 1" xmlns="http://www.w3.org/2000/svg" viewBox="0 0 180 180"><defs><style>.cls-1{fill:#71a1d6;}.cls-2{fill:#64bdf0;}.cls-3{fill:#fff;}</style></defs><title>Artboard 1</title><path class="cls-1" d="M89.46,94.74V112.2a177.15,177.15,0,0,1,23.9,11V94.74Z"/><path class="cls-2" d="M89.46,46.41V68.6a27,27,0,1,0-21.31-.45V46.41Z"/><path class="cls-3" d="M113.36,46.41V75.77H89.46V46.41H68.15v58.47a53.19,53.19,0,0,0,9.61,3.63c4,1,7.88,2.29,11.7,3.69V94.74h23.9v28.48q2.73,1.5,5.21,3h16.1V46.41Z"/><path class="cls-1" d="M140.39,58.1c0-27.64-17.55-39.48-31.55-44.54-17.39-6.07-33.36-1.12-36.23-.13-32.84,11.82-33,48.05-33,48.05,0,25.5,17.23,38,28.54,43.4V68.15a27,27,0,1,1,21.31.45v7.17h23.9V46.41h21.31v79.77h-16.1a193.58,193.58,0,0,1,18.18,11.95c-2.86-36.12,1.3-59.24,1.3-59.24A95.13,95.13,0,0,0,140.39,58.1Z"/><path class="cls-1" d="M51.59,138.29v10.34H43.18V138.29H35.67v20.6a18.48,18.48,0,0,0,3.39,1.27c1.39.37,2.77.81,4.12,1.3v-6.15h8.41v10l1.84,1H59.1v-28.1Z"/><path class="cls-1" d="M43.18,166.39V156.05h8.41v10.34H59.1V145.8a18.15,18.15,0,0,0-3.39-1.28c-1.39-.37-2.77-.81-4.12-1.3v6.15H43.18v-10c-.65-.35-1.26-.7-1.84-1.05H35.67v28.1Z"/><path class="cls-1" d="M62,156.33a10.63,10.63,0,0,1,2.39-7.16,8.42,8.42,0,0,1,6.79-2.82,8,8,0,0,1,6.54,2.7,10.1,10.1,0,0,1,2.24,6.68,8.37,8.37,0,0,1-.2,2.28H67.86c.4,2.44,1.77,3.67,4.11,3.67A10.78,10.78,0,0,0,77.48,160l2.12,3.83a13.66,13.66,0,0,1-8.07,2.56,8.93,8.93,0,0,1-7.1-2.84A10.56,10.56,0,0,1,62,156.33Zm6-2.12h6.11q0-3.15-3-3.15C69.15,151.06,68.13,152.11,67.94,154.21Z"/><path class="cls-1" d="M81.63,160.16v-22h5.51v21.59a2.38,2.38,0,0,0,.4,1.62,2.21,2.21,0,0,0,1.59.42l-.36,4.63c-2.44,0-4.25-.48-5.4-1.44S81.63,162.4,81.63,160.16Z"/><path class="cls-1" d="M95.24,143.52a3.28,3.28,0,0,1-4.47,0,2.88,2.88,0,0,1-.92-2.16,3.05,3.05,0,0,1,.92-2.21,2.94,2.94,0,0,1,2.19-.94,3.1,3.1,0,0,1,2.28.92,3,3,0,0,1,.92,2.23A2.88,2.88,0,0,1,95.24,143.52Zm-5,22.43V146.79h5.51V166Z"/><path class="cls-1" d="M98.27,158.72V146.79h5.51v11.58a4.25,4.25,0,0,0,.58,2.61,2.15,2.15,0,0,0,1.77.7,4.06,4.06,0,0,0,3.2-1.72V146.79h5.5V166h-4.35l-.39-1.92h-.16a6.65,6.65,0,0,1-9.8.4A8,8,0,0,1,98.27,158.72Z"/><path class="cls-1" d="M117.27,166V146.79h4.35l.4,1.92h.16a6,6,0,0,1,4.83-2.36,6.11,6.11,0,0,1,5.27,2.64,7.3,7.3,0,0,1,5.38-2.64,6.12,6.12,0,0,1,4.81,2.08,8.48,8.48,0,0,1,1.86,5.86V166h-5.51v-11.3a5.8,5.8,0,0,0-.48-2.81,1.76,1.76,0,0,0-1.63-.78,4.78,4.78,0,0,0-3.24,1.56,12.62,12.62,0,0,1,.08,1.67V166h-5.5v-11.3a6.3,6.3,0,0,0-.44-2.83,1.75,1.75,0,0,0-1.64-.76,4.41,4.41,0,0,0-3.19,1.68V166Z"/></svg>