<svg id="Layer_1" data-name="Layer 1" xmlns="http://www.w3.org/2000/svg" viewBox="0 0 360 188.65"><defs><style>.cls-1{fill:#fff;stroke:#fff;stroke-miterlimit:10;}.cls-2{fill:none;}</style></defs><title>Artboard 1</title><path class="cls-1" d="M87,116.34v20.3a206.54,206.54,0,0,1,27.79,12.82V116.34Z"/><path class="cls-1" d="M87,60.14v25.8a31.43,31.43,0,1,0-24.78-.52V60.14Z"/><path class="cls-2" d="M114.78,60.14V94.28H87V60.14H62.21v68a62,62,0,0,0,11.18,4.22c4.61,1.2,9.16,2.66,13.6,4.29v-20.3h27.79v33.12q3.18,1.74,6.06,3.44h18.72V60.14Z"/><path class="cls-1" d="M146.21,73.73c0-32.13-20.4-45.91-36.68-51.79-20.23-7.06-38.79-1.3-42.13-.15C29.21,35.54,29,77.66,29,77.66c0,29.65,20.05,44.15,33.19,50.47V85.42A31.42,31.42,0,1,1,87,85.94v8.34h27.79V60.14h24.78V152.9H120.84A223.3,223.3,0,0,1,142,166.8c-3.32-42,1.51-68.9,1.51-68.9A110.71,110.71,0,0,0,146.21,73.73Z"/><path class="cls-1" d="M144.49,123.89q0-9.81,5.39-16.14t15.29-6.34q9.71,0,14.74,6.07t5,15.06a18.35,18.35,0,0,1-.45,5.12H157.8q1.33,8.28,9.26,8.28a24.3,24.3,0,0,0,12.4-3.78l4.77,8.63a30.83,30.83,0,0,1-18.16,5.76q-10.44,0-16-6.39T144.49,123.89ZM158,119.12h13.76q0-7.09-6.83-7.1Q158.6,112,158,119.12Z"/><path class="cls-1" d="M188.81,132.52V82.89h12.41v48.64c0,1.8.3,3,.9,3.64s1.8,1,3.6,1l-.81,10.43q-8.28,0-12.18-3.24T188.81,132.52Z"/><path class="cls-1" d="M219.47,95a7.42,7.42,0,0,1-10.07,0,6.46,6.46,0,0,1-2.07-4.86,6.89,6.89,0,0,1,2.07-5,6.68,6.68,0,0,1,4.95-2.11,7,7,0,0,1,5.12,2.06,6.86,6.86,0,0,1,2.07,5A6.46,6.46,0,0,1,219.47,95Zm-11.24,50.53V102.4h12.41v43.16Z"/><path class="cls-1" d="M226.31,129.28V102.4h12.41v26.07q0,4.32,1.3,5.89a4.89,4.89,0,0,0,4,1.58c2.7,0,5.09-1.29,7.19-3.87V102.4h12.41v43.16h-9.8l-.9-4.32h-.36a15,15,0,0,1-22.07.9Q226.3,137.73,226.31,129.28Z"/><path class="cls-1" d="M269.11,145.56V102.4h9.8l.9,4.31h.36a14.33,14.33,0,0,1,22.74.63q5.58-5.93,12.14-5.93a13.86,13.86,0,0,1,10.84,4.68q4.19,4.66,4.18,13.21v26.26H317.66V120.11q0-4.59-1.08-6.34A4,4,0,0,0,312.9,112q-3.6,0-7.29,3.5a31.75,31.75,0,0,1,.18,3.78v26.26H293.38V120.11q0-4.67-1-6.38c-.67-1.14-1.89-1.71-3.69-1.71q-3.69,0-7.19,3.78v29.76Z"/></svg>